<?xml version="1.0" encoding="utf-8"?>
<!-- Generator: Adobe Illustrator 23.0.3, SVG Export Plug-In . SVG Version: 6.00 Build 0)  -->
<svg version="1.1" id="Capa_1" xmlns="http://www.w3.org/2000/svg" xmlns:xlink="http://www.w3.org/1999/xlink" x="0px" y="0px"
	 viewBox="0 0 494 80" style="enable-background:new 0 0 494 80;" xml:space="preserve">
<style type="text/css">
	.st0{fill:#FE4918;}
	.st1{fill:#FFFFFF;}
</style>
<rect x="5" y="9.2" class="st0" width="18" height="58.8"/>
<g>
	<path class="st1" d="M34,58.8c0.5-4.5,0.9-8.1,1.1-10.9c0.2-2.8,0.4-7.7,0.7-14.5c0.3-6.8,0.5-11.6,0.5-14.1c0-0.8,0-1.9,0-3.4
		c3.5,0,6.4,0.1,8.7,0.1c2.3,0,5.2,0,8.6-0.1c3.4-0.1,6.2-0.1,8.4-0.1c3.1,0,5.4,0.1,7,0.3c1.6,0.2,2.9,0.5,4.2,0.9
		c1.2,0.4,2.2,0.9,3.1,1.5c0.8,0.6,1.5,1.3,2.1,2c0.6,0.8,1,1.6,1.3,2.6c0.3,0.9,0.4,1.8,0.4,2.8c0,1.2-0.2,2.3-0.6,3.4
		s-0.9,2-1.6,2.9s-1.5,1.6-2.5,2.2c-0.9,0.6-1.8,1.1-2.7,1.4c-0.9,0.3-2,0.7-3.4,1.1c1.3,0.2,2.3,0.4,3.1,0.6
		c0.8,0.2,1.6,0.5,2.5,0.9c0.9,0.4,1.7,0.9,2.5,1.6c0.8,0.6,1.4,1.3,1.9,2c0.5,0.7,0.8,1.5,1.1,2.4c0.3,0.9,0.4,1.8,0.4,2.7
		c0,2-0.6,3.9-1.7,5.5s-2.7,3-4.7,4c-2,1-4.3,1.6-6.8,2c-2.5,0.3-7.8,0.5-15.9,0.5l-10,0L34,58.8z M46.5,52.7h9.4
		c1.9,0,3.4-0.1,4.5-0.2c1.1-0.1,2.1-0.3,3-0.6c1-0.3,1.7-0.6,2.3-0.9c0.6-0.3,1-0.8,1.5-1.3c0.4-0.5,0.8-1.1,1-1.8
		c0.2-0.7,0.4-1.4,0.4-2.1c0-1-0.2-1.8-0.7-2.6c-0.4-0.7-1.1-1.4-2-1.9c-0.9-0.5-1.9-0.9-3-1.2c-1.2-0.2-2.9-0.4-5.3-0.4H47.1
		L46.5,52.7z M47.5,33.6h6.6c2.8,0,4.7-0.1,5.7-0.2c1-0.1,2-0.3,3.1-0.6c1.1-0.3,2-0.8,2.7-1.4c0.7-0.6,1.3-1.3,1.6-2.1
		c0.3-0.8,0.5-1.5,0.5-2.3c0-0.8-0.2-1.5-0.6-2.2c-0.4-0.7-0.9-1.3-1.7-1.7c-0.8-0.5-1.7-0.8-2.8-1c-1.1-0.2-2.7-0.3-4.8-0.3h-9.9
		L47.5,33.6z"/>
	<path class="st1" d="M89.2,58.8c0.8-6.3,1.5-13.5,1.9-21.6c0.4-8.1,0.6-15.3,0.6-21.4c3.3,0,6.1,0.1,8.3,0.1c2.4,0,4.8,0,7.1-0.1
		s4.7-0.1,7.3-0.1c3.2,0,6.1,0.1,8.6,0.4c2.5,0.3,4.8,0.9,6.7,1.9c2,1,3.4,2.2,4.4,3.6c1,1.4,1.4,3,1.4,4.9c0,1.2-0.2,2.3-0.5,3.4
		c-0.4,1.1-0.9,2.1-1.6,3c-0.7,0.9-1.5,1.8-2.5,2.5c-1,0.7-1.9,1.3-2.9,1.7c-1,0.4-2,0.8-3.3,1.1c-1.2,0.3-2.8,0.7-4.9,1.1l2.8,4.2
		c0.9,1.3,2.6,3.7,5.2,7.1l4.2,5.6c0.2,0.3,0.9,1.3,2,2.9c-3.4,0-5.6-0.1-6.7-0.1c-1.3,0-3.7,0-7,0.1l-4.6-8.4
		c-0.8-1.3-1.8-2.8-2.9-4.5l-5-7.7c-0.5-0.7-1.2-1.8-2.1-3.2c1.9,0.3,3.5,0.4,5.1,0.4c2.4,0,4.5-0.3,6.5-0.9c2-0.6,3.5-1.5,4.5-2.7
		c1-1.2,1.6-2.6,1.6-4c0-0.9-0.2-1.7-0.7-2.5s-1.2-1.4-2.3-1.9c-1.1-0.5-2.4-0.9-3.9-1c-1.5-0.1-3-0.2-4.5-0.2c-0.8,0-2,0-3.4,0
		c-1.4,0-3.2,0-5.3,0l-0.7,13l-0.8,23.6l-6.4-0.1C94.5,58.7,92.4,58.8,89.2,58.8z"/>
	<path class="st1" d="M175,15c4.1,0,8.1,0.4,11.8,1.3c3.8,0.9,7.1,2.3,10.1,4.2c2.9,1.9,5.1,4.2,6.6,6.8s2.2,5.6,2.2,9
		c0,3.2-0.7,6.3-2.1,9.3c-1.4,3-3.6,5.5-6.5,7.6c-3,2.1-6.5,3.7-10.8,4.7c-4.2,1-8.7,1.5-13.4,1.5c-4.4,0-8.7-0.5-12.7-1.4
		c-4.1-0.9-7.6-2.4-10.5-4.4s-5-4.3-6.3-6.9c-1.3-2.6-1.9-5.4-1.9-8.5c0-3.3,0.8-6.5,2.4-9.6c1.6-3,3.9-5.6,7-7.6
		c3.1-2,6.7-3.5,10.8-4.5C165.8,15.5,170.2,15,175,15z M174.3,21.7c-4.2,0-7.8,0.7-10.9,2.2c-3.1,1.5-5.4,3.5-7,6
		c-1.6,2.5-2.3,5.3-2.3,8.2c0,2.7,0.8,5.2,2.3,7.5c1.5,2.3,3.8,4.1,6.9,5.3c3.1,1.2,6.5,1.8,10.1,1.8c2.7,0,5.3-0.4,7.8-1.1
		c2.5-0.7,4.6-1.8,6.4-3.3c1.8-1.5,3.2-3.2,4.1-5.3c0.9-2.1,1.4-4.2,1.4-6.4c0-2.1-0.4-4.1-1.2-6c-0.8-1.9-2.1-3.6-3.8-4.9
		c-1.7-1.4-3.8-2.4-6.2-3.1C179.5,22.1,177,21.7,174.3,21.7z"/>
	<path class="st1" d="M212.1,57.9c-0.2-3.2-0.5-5.8-0.9-7.8c5.4,1.9,10.3,2.8,14.7,2.8c1.8,0,3.4-0.2,4.9-0.6c1.5-0.4,2.7-1,3.4-1.7
		c0.7-0.7,1.1-1.6,1.1-2.5c0-0.7-0.2-1.4-0.5-1.9c-0.5-0.8-1.4-1.6-2.6-2.4c-1.6-1.2-4.4-3.1-8.4-5.7c-1.9-1.3-3.3-2.2-4-2.7
		c-1.7-1.2-2.9-2.3-3.8-3.2c-0.9-1-1.5-1.9-1.9-2.9c-0.4-0.9-0.6-2-0.6-3c0-2,0.7-3.8,2.2-5.6c1.4-1.7,3.6-3.1,6.5-4.1
		c2.9-1,6.5-1.5,10.9-1.5c3.9,0,8.4,0.4,13.3,1.1c0.1,2.2,0.4,4.7,0.8,7.5c-4.3-1.3-8.3-1.9-11.9-1.9c-2.7,0-4.9,0.5-6.6,1.4
		c-1.7,0.9-2.6,2-2.6,3.3c0,0.3,0.1,0.7,0.2,1.1c0.1,0.4,0.3,0.7,0.5,1.1c0.2,0.3,0.7,0.8,1.3,1.4c0.6,0.6,1.5,1.2,2.7,2
		c1.2,0.7,2.2,1.4,3,1.8l5.1,3.5c1.3,0.8,2.5,1.6,3.5,2.4c1,0.8,1.9,1.5,2.6,2.2c0.7,0.7,1.3,1.4,1.7,2c0.4,0.7,0.7,1.3,0.9,2
		c0.2,0.7,0.3,1.4,0.3,2.2c0,1.8-0.5,3.4-1.6,5c-1.1,1.6-2.6,2.9-4.6,3.9c-2,1-4.2,1.7-6.6,2.1c-2.4,0.4-4.9,0.6-7.6,0.6
		c-1.8,0-3.8-0.1-6.2-0.3C219.1,59,216,58.5,212.1,57.9z"/>
	<path class="st1" d="M256,58.8l1.1-7.1l2.7-25l1-10.9c3.9,0,6.8,0.1,8.6,0.1c1.5,0,4.1,0,8-0.1c0.4,1.7,0.8,2.9,1,3.6
		c0.2,0.7,0.7,1.9,1.3,3.4c0.6,1.6,1.5,3.5,2.4,5.7c1.5,3.4,2.8,6.8,3.9,10.1l3.2,9l5.5-11.6l8.1-15c0.3-0.5,0.6-1.1,0.8-1.7
		s0.8-1.8,1.5-3.5c3.3,0,6.2,0.1,8.8,0.1c1.7,0,4.4,0,8.2-0.1c-0.4,6-0.7,12.7-0.9,20.1c-0.2,7.3-0.3,12.8-0.3,16.4
		c0,1.7,0,3.9,0.1,6.6c-2.7,0-4.6-0.1-5.6-0.1c-1.4,0-3.3,0-5.7,0.1c0.2-2.1,0.3-3.9,0.3-5.3l0.7-18.7c0.1-2.6,0.1-5.3,0.1-7.8
		l0-2.6L295.7,55l-1.8,3.8c-2.7,0-4.5-0.1-5.5-0.1c-1.2,0-3.2,0-5.9,0.1l-7.1-19.4c-0.2-0.7-0.8-2.1-1.7-4.3l-2.6-6.4
		c-0.2-0.6-0.4-1.1-0.6-1.5c-0.1-0.4-0.4-1.3-0.8-2.6l-0.5,4c-0.1,1.3-0.3,3.4-0.6,6.4l-1.6,19.5c-0.1,1-0.1,2.4-0.1,4.3l-5.3-0.1
		C260.6,58.7,258.7,58.8,256,58.8z"/>
	<path class="st1" d="M332.3,58.8c0.7-7.2,1.2-14.6,1.6-22.2c0.4-7.6,0.6-13.4,0.6-17.4l0-3.4l6.9,0.1c0.4,0,2.5,0,6.3-0.1
		c-1.1,11-1.8,25.4-2.1,43l-6.1-0.1C338.5,58.7,336.1,58.8,332.3,58.8z"/>
	<path class="st1" d="M357.2,58.8c0.5-3.8,0.9-8,1.2-12.7l0.9-15.4c0.3-5.6,0.5-10.6,0.5-14.9c3.2,0,5.9,0.1,8.2,0.1
		c1.7,0,4.1,0,7.2-0.1c3.1,4.1,7.4,9.5,12.9,16.2s9.9,12.2,13.3,16.5l1.5-29.2c0-0.7,0-1.9,0-3.5c2.6,0,4.6,0.1,5.9,0.1
		c0.5,0,2.5,0,5.8-0.1l-1,11.6l-1.3,19.8l-0.5,11.7c-2.9,0-5.3-0.1-7.3-0.1c-1.6,0-4.2,0-7.8,0.1c-1.4-1.9-2.4-3.3-3.1-4.2
		c-1.1-1.4-3.5-4.2-7.2-8.6c-2.4-2.9-5.5-6.5-9.1-11c-2.7-3.3-5-6.1-6.9-8.6c-0.2,3.4-0.6,9.7-1,18.9c-0.2,3.8-0.3,8.2-0.5,13.3
		c-2.6,0-4.5-0.1-5.6-0.1C362.3,58.7,360.3,58.8,357.2,58.8z"/>
	<path class="st1" d="M423.9,58.8l1.1-11l0.8-13.7l0.5-13.6c0-0.6,0-2.2,0-4.7c3.1,0,6,0.1,8.7,0.1c2,0,4.7,0,8-0.1s6.2-0.1,8.6-0.1
		c3.3,0,6.3,0.1,9,0.4c2.8,0.3,5.2,0.8,7.3,1.7c2.1,0.8,3.9,1.8,5.4,3s2.8,2.6,3.7,4s1.7,3.1,2.2,4.9c0.5,1.8,0.8,3.7,0.8,5.6
		c0,3.6-0.8,7.1-2.5,10.3c-1.6,3.3-4.1,6-7.4,8.1s-6.9,3.5-10.8,4.1c-4,0.6-8.5,0.9-13.5,0.9l-14.1-0.1
		C430.9,58.7,428.3,58.8,423.9,58.8z M436.6,52.1c2.3,0.1,4.5,0.1,6.7,0.1c2.5,0,4.8-0.1,7-0.3s4-0.5,5.5-0.9
		c1.5-0.4,3.1-1.1,4.7-2.2c1.6-1,2.8-2.2,3.8-3.6c1-1.4,1.8-2.9,2.3-4.5c0.5-1.7,0.8-3.4,0.8-5.1c0-3.2-0.7-5.7-2.1-7.8
		c-1.4-2-3.3-3.5-5.6-4.4c-2.3-0.9-5.9-1.3-10.7-1.3c-3.1,0-6.7,0-10.7,0.1L436.6,52.1z"/>
</g>
</svg>
